<!-- /public/icons/whatsapp.svg -->
<svg xmlns="http://www.w3.org/2000/svg" viewBox="0 0 32 32">
  <!-- White glyphs; no background -->
  <path fill="#ffffff" d="M16.04 2C8.63 2 2.5 8.13 2.5 15.54c0 2.72.77 5.28 2.22 7.52L2 30l7.15-2.26c2.14 1.17 4.56 1.78 7.02 1.78 7.41 0 13.54-6.13 13.54-13.54S23.45 2 16.04 2zm0 24.86c-2.16 0-4.27-.55-6.14-1.59l-.44-.25-4.23 1.34 1.38-4.12-.28-.43a12.46 12.46 0 01-1.92-6.47c0-6.89 5.6-12.49 12.49-12.49 6.89 0 12.49 5.6 12.49 12.49S22.93 26.86 16.04 26.86z"/>
  <path fill="#ffffff" d="M22.54 18.93c-.38-.19-2.24-1.1-2.59-1.23-.35-.13-.6-.19-.86.19-.26.38-.99 1.23-1.22 1.48-.22.26-.45.29-.83.1-.38-.19-1.61-.59-3.07-1.87-1.13-1-1.89-2.23-2.11-2.61-.22-.38-.02-.57.17-.76.17-.17.38-.45.57-.67.19-.22.25-.38.38-.64.13-.26.06-.48-.03-.67-.1-.19-.86-2.06-1.18-2.82-.31-.75-.63-.64-.86-.65h-.73c-.25 0-.64.1-.98.48-.35.38-1.3 1.27-1.3 3.09 0 1.82 1.33 3.58 1.52 3.83.19.25 2.61 3.99 6.31 5.6.88.38 1.57.61 2.1.78.88.28 1.69.24 2.33.14.71-.11 2.24-.91 2.56-1.79.32-.88.32-1.63.23-1.79-.1-.16-.35-.25-.73-.44z"/>
</svg>
